<?xml version="1.0" encoding="UTF-8" standalone="no"?>
<!DOCTYPE svg PUBLIC "-//W3C//DTD SVG 1.1//EN"
 "http://www.w3.org/Graphics/SVG/1.1/DTD/svg11.dtd">
<!-- Generated by graphviz version 2.26.0 (20091210.2329)
 -->
<!-- Title: structs Pages: 1 -->
<svg width="1644pt" height="1062pt"
 viewBox="0.00 0.00 1644.00 1062.28" xmlns="http://www.w3.org/2000/svg" xmlns:xlink="http://www.w3.org/1999/xlink">
<g id="graph1" class="graph" transform="scale(1 1) rotate(0) translate(4 1058.28)">
<title>structs</title>
<polygon fill="white" stroke="white" points="-4,5 -4,-1058.28 1641,-1058.28 1641,5 -4,5"/>
<!-- trainAppearanceModelCV__out_classifier -->
<g id="node1" class="node"><title>trainAppearanceModelCV__out_classifier</title>
<polygon fill="#b0e2ff" stroke="black" points="1534,-518 1534,-574 1636,-574 1636,-518 1534,-518"/>
<text text-anchor="middle" x="1585" y="-555.6" font-family="Times Roman,serif" font-size="16.00">out_classifier</text>
<polyline fill="none" stroke="black" points="1534,-546 1636,-546 "/>
<text text-anchor="middle" x="1573.5" y="-527.6" font-family="Times Roman,serif" font-size="16.00">[N] input</text>
<polyline fill="none" stroke="black" points="1613,-518 1613,-546 "/>
<text text-anchor="middle" x="1624.5" y="-527.6" font-family="Times Roman,serif" font-size="16.00"> </text>
</g>
<!-- trainAppearanceModelCV__const_morph_operation_0 -->
<g id="node2" class="node"><title>trainAppearanceModelCV__const_morph_operation_0</title>
<polygon fill="#ffbbff" stroke="black" points="329.5,-148 329.5,-204 516.5,-204 516.5,-148 329.5,-148"/>
<text text-anchor="middle" x="423" y="-185.6" font-family="Times Roman,serif" font-size="16.00">const_morph_operation_0</text>
<polyline fill="none" stroke="black" points="329.5,-176 516.5,-176 "/>
<text text-anchor="middle" x="359.5" y="-157.6" font-family="Times Roman,serif" font-size="16.00"> </text>
<polyline fill="none" stroke="black" points="389.5,-148 389.5,-176 "/>
<text text-anchor="middle" x="453" y="-157.6" font-family="Times Roman,serif" font-size="16.00">output [M]</text>
</g>
<!-- trainAppearanceModelCV__morph -->
<g id="node4" class="node"><title>trainAppearanceModelCV__morph</title>
<polygon fill="#e5e5e5" stroke="black" points="598.5,-108 598.5,-388 909.5,-388 909.5,-108 598.5,-108"/>
<text text-anchor="middle" x="754" y="-369.6" font-family="Times Roman,serif" font-size="16.00">morph</text>
<polyline fill="none" stroke="black" points="598.5,-360 909.5,-360 "/>
<text text-anchor="middle" x="713.5" y="-341.6" font-family="Times Roman,serif" font-size="16.00">[O] image</text>
<polyline fill="none" stroke="black" points="598.5,-332 828.5,-332 "/>
<text text-anchor="middle" x="713.5" y="-313.6" font-family="Times Roman,serif" font-size="16.00">[M] operation</text>
<polyline fill="none" stroke="black" points="598.5,-304 828.5,-304 "/>
<text text-anchor="middle" x="713.5" y="-285.6" font-family="Times Roman,serif" font-size="16.00">[P] operation_type</text>
<polyline fill="none" stroke="black" points="598.5,-276 828.5,-276 "/>
<text text-anchor="middle" x="713.5" y="-257.6" font-family="Times Roman,serif" font-size="16.00">[] compression_flag</text>
<polyline fill="none" stroke="black" points="598.5,-248 828.5,-248 "/>
<text text-anchor="middle" x="713.5" y="-229.6" font-family="Times Roman,serif" font-size="16.00">[Q] radius</text>
<polyline fill="none" stroke="black" points="598.5,-220 828.5,-220 "/>
<text text-anchor="middle" x="713.5" y="-201.6" font-family="Times Roman,serif" font-size="16.00">[] boundary_condition</text>
<polyline fill="none" stroke="black" points="598.5,-192 828.5,-192 "/>
<text text-anchor="middle" x="713.5" y="-173.6" font-family="Times Roman,serif" font-size="16.00">[] foreground_background_value</text>
<polyline fill="none" stroke="black" points="598.5,-164 828.5,-164 "/>
<text text-anchor="middle" x="713.5" y="-145.6" font-family="Times Roman,serif" font-size="16.00">[] gradient_algorithm_enum</text>
<polyline fill="none" stroke="black" points="598.5,-136 828.5,-136 "/>
<text text-anchor="middle" x="713.5" y="-117.6" font-family="Times Roman,serif" font-size="16.00">[] component_type</text>
<polyline fill="none" stroke="black" points="828.5,-108 828.5,-360 "/>
<text text-anchor="middle" x="869" y="-229.6" font-family="Times Roman,serif" font-size="16.00">image [O]</text>
</g>
<!-- trainAppearanceModelCV__const_morph_operation_0&#45;&gt;trainAppearanceModelCV__morph -->
<g id="edge30" class="edge"><title>trainAppearanceModelCV__const_morph_operation_0:o_output&#45;&gt;trainAppearanceModelCV__morph:i_operation</title>
<path fill="none" stroke="black" d="M517,-162C547.229,-162 546.806,-186.867 562,-213 584.859,-252.317 554.24,-308.378 587.967,-316.897"/>
<polygon fill="black" stroke="black" points="587.677,-320.387 598,-318 588.442,-313.428 587.677,-320.387"/>
</g>
<!-- trainAppearanceModelCV__label_images -->
<g id="node3" class="node"><title>trainAppearanceModelCV__label_images</title>
<polygon fill="#caff70" stroke="black" points="72,-863 72,-919 176,-919 176,-863 72,-863"/>
<text text-anchor="middle" x="124" y="-900.6" font-family="Times Roman,serif" font-size="16.00">label_images</text>
<polyline fill="none" stroke="black" points="72,-891 176,-891 "/>
<text text-anchor="middle" x="82" y="-872.6" font-family="Times Roman,serif" font-size="16.00"> </text>
<polyline fill="none" stroke="black" points="92,-863 92,-891 "/>
<text text-anchor="middle" x="134" y="-872.6" font-family="Times Roman,serif" font-size="16.00">output [O]</text>
</g>
<!-- trainAppearanceModelCV__threshold -->
<g id="node8" class="node"><title>trainAppearanceModelCV__threshold</title>
<polygon fill="#e5e5e5" stroke="black" points="284.5,-222 284.5,-810 561.5,-810 561.5,-222 284.5,-222"/>
<text text-anchor="middle" x="423" y="-791.6" font-family="Times Roman,serif" font-size="16.00">threshold</text>
<polyline fill="none" stroke="black" points="284.5,-782 561.5,-782 "/>
<text text-anchor="middle" x="382.5" y="-763.6" font-family="Times Roman,serif" font-size="16.00">[O] image</text>
<polyline fill="none" stroke="black" points="284.5,-754 480.5,-754 "/>
<text text-anchor="middle" x="382.5" y="-735.6" font-family="Times Roman,serif" font-size="16.00">[] method</text>
<polyline fill="none" stroke="black" points="284.5,-726 480.5,-726 "/>
<text text-anchor="middle" x="382.5" y="-707.6" font-family="Times Roman,serif" font-size="16.00">[] mask</text>
<polyline fill="none" stroke="black" points="284.5,-698 480.5,-698 "/>
<text text-anchor="middle" x="382.5" y="-679.6" font-family="Times Roman,serif" font-size="16.00">[] lower_threshold</text>
<polyline fill="none" stroke="black" points="284.5,-670 480.5,-670 "/>
<text text-anchor="middle" x="382.5" y="-651.6" font-family="Times Roman,serif" font-size="16.00">[U] upper_threshold</text>
<polyline fill="none" stroke="black" points="284.5,-642 480.5,-642 "/>
<text text-anchor="middle" x="382.5" y="-623.6" font-family="Times Roman,serif" font-size="16.00">[] inside_value</text>
<polyline fill="none" stroke="black" points="284.5,-614 480.5,-614 "/>
<text text-anchor="middle" x="382.5" y="-595.6" font-family="Times Roman,serif" font-size="16.00">[] outside_value</text>
<polyline fill="none" stroke="black" points="284.5,-586 480.5,-586 "/>
<text text-anchor="middle" x="382.5" y="-567.6" font-family="Times Roman,serif" font-size="16.00">[] number_of_thresholds</text>
<polyline fill="none" stroke="black" points="284.5,-558 480.5,-558 "/>
<text text-anchor="middle" x="382.5" y="-539.6" font-family="Times Roman,serif" font-size="16.00">[] number_of_histbins</text>
<polyline fill="none" stroke="black" points="284.5,-530 480.5,-530 "/>
<text text-anchor="middle" x="382.5" y="-511.6" font-family="Times Roman,serif" font-size="16.00">[] radius</text>
<polyline fill="none" stroke="black" points="284.5,-502 480.5,-502 "/>
<text text-anchor="middle" x="382.5" y="-483.6" font-family="Times Roman,serif" font-size="16.00">[] number_of_controlpoints</text>
<polyline fill="none" stroke="black" points="284.5,-474 480.5,-474 "/>
<text text-anchor="middle" x="382.5" y="-455.6" font-family="Times Roman,serif" font-size="16.00">[] number_of_levels</text>
<polyline fill="none" stroke="black" points="284.5,-446 480.5,-446 "/>
<text text-anchor="middle" x="382.5" y="-427.6" font-family="Times Roman,serif" font-size="16.00">[] number_of_samples</text>
<polyline fill="none" stroke="black" points="284.5,-418 480.5,-418 "/>
<text text-anchor="middle" x="382.5" y="-399.6" font-family="Times Roman,serif" font-size="16.00">[] spline_order</text>
<polyline fill="none" stroke="black" points="284.5,-390 480.5,-390 "/>
<text text-anchor="middle" x="382.5" y="-371.6" font-family="Times Roman,serif" font-size="16.00">[] power</text>
<polyline fill="none" stroke="black" points="284.5,-362 480.5,-362 "/>
<text text-anchor="middle" x="382.5" y="-343.6" font-family="Times Roman,serif" font-size="16.00">[] sigma</text>
<polyline fill="none" stroke="black" points="284.5,-334 480.5,-334 "/>
<text text-anchor="middle" x="382.5" y="-315.6" font-family="Times Roman,serif" font-size="16.00">[] number_of_iterations</text>
<polyline fill="none" stroke="black" points="284.5,-306 480.5,-306 "/>
<text text-anchor="middle" x="382.5" y="-287.6" font-family="Times Roman,serif" font-size="16.00">[] mask_value</text>
<polyline fill="none" stroke="black" points="284.5,-278 480.5,-278 "/>
<text text-anchor="middle" x="382.5" y="-259.6" font-family="Times Roman,serif" font-size="16.00">[] mixture_type</text>
<polyline fill="none" stroke="black" points="284.5,-250 480.5,-250 "/>
<text text-anchor="middle" x="382.5" y="-231.6" font-family="Times Roman,serif" font-size="16.00">[] compression_flag</text>
<polyline fill="none" stroke="black" points="480.5,-222 480.5,-782 "/>
<text text-anchor="middle" x="521" y="-497.6" font-family="Times Roman,serif" font-size="16.00">image [O]</text>
</g>
<!-- trainAppearanceModelCV__label_images&#45;&gt;trainAppearanceModelCV__threshold -->
<g id="edge20" class="edge"><title>trainAppearanceModelCV__label_images:o_output&#45;&gt;trainAppearanceModelCV__threshold:i_image</title>
<path fill="none" stroke="black" d="M176,-877C240.601,-877 218.529,-779.193 273.988,-768.877"/>
<polygon fill="black" stroke="black" points="274.344,-772.36 284,-768 273.733,-765.386 274.344,-772.36"/>
</g>
<!-- trainAppearanceModelCV__sampler -->
<g id="node10" class="node"><title>trainAppearanceModelCV__sampler</title>
<polygon fill="#e5e5e5" stroke="black" points="946.5,-490 946.5,-686 1209.5,-686 1209.5,-490 946.5,-490"/>
<text text-anchor="middle" x="1078" y="-667.6" font-family="Times Roman,serif" font-size="16.00">sampler</text>
<polyline fill="none" stroke="black" points="946.5,-658 1209.5,-658 "/>
<text text-anchor="middle" x="1020" y="-639.6" font-family="Times Roman,serif" font-size="16.00">[O] image</text>
<polyline fill="none" stroke="black" points="946.5,-630 1093.5,-630 "/>
<text text-anchor="middle" x="1020" y="-611.6" font-family="Times Roman,serif" font-size="16.00">[O] labels</text>
<polyline fill="none" stroke="black" points="946.5,-602 1093.5,-602 "/>
<text text-anchor="middle" x="1020" y="-583.6" font-family="Times Roman,serif" font-size="16.00">[O] mask</text>
<polyline fill="none" stroke="black" points="946.5,-574 1093.5,-574 "/>
<text text-anchor="middle" x="1020" y="-555.6" font-family="Times Roman,serif" font-size="16.00">[V] nsamples</text>
<polyline fill="none" stroke="black" points="946.5,-546 1093.5,-546 "/>
<text text-anchor="middle" x="1020" y="-527.6" font-family="Times Roman,serif" font-size="16.00">[] seed_int</text>
<polyline fill="none" stroke="black" points="946.5,-518 1093.5,-518 "/>
<text text-anchor="middle" x="1020" y="-499.6" font-family="Times Roman,serif" font-size="16.00">[] use_negative_flag</text>
<polyline fill="none" stroke="black" points="1093.5,-490 1093.5,-658 "/>
<text text-anchor="middle" x="1151.5" y="-569.6" font-family="Times Roman,serif" font-size="16.00">sample_file [O]</text>
</g>
<!-- trainAppearanceModelCV__label_images&#45;&gt;trainAppearanceModelCV__sampler -->
<g id="edge14" class="edge"><title>trainAppearanceModelCV__label_images:o_output&#45;&gt;trainAppearanceModelCV__sampler:i_labels</title>
<path fill="none" stroke="black" d="M176,-877C238.482,-877 225.25,-945.73 284,-967 546.31,-1061.97 714.116,-1119.63 910,-921 955.301,-875.064 886.137,-643.423 936.089,-618.225"/>
<polygon fill="black" stroke="black" points="937.009,-621.605 946,-616 935.476,-614.775 937.009,-621.605"/>
</g>
<!-- trainAppearanceModelCV__morph&#45;&gt;trainAppearanceModelCV__sampler -->
<g id="edge8" class="edge"><title>trainAppearanceModelCV__morph:o_image&#45;&gt;trainAppearanceModelCV__sampler:i_mask</title>
<path fill="none" stroke="black" d="M910,-234C985.366,-234 877.937,-555.59 936.165,-585.739"/>
<polygon fill="black" stroke="black" points="935.47,-589.171 946,-588 937.038,-582.349 935.47,-589.171"/>
</g>
<!-- trainAppearanceModelCV__const_scalespacefilter_scales_0 -->
<g id="node5" class="node"><title>trainAppearanceModelCV__const_scalespacefilter_scales_0</title>
<polygon fill="#ffbbff" stroke="black" points="315,-828 315,-884 531,-884 531,-828 315,-828"/>
<text text-anchor="middle" x="423" y="-865.6" font-family="Times Roman,serif" font-size="16.00">const_scalespacefilter_scales_0</text>
<polyline fill="none" stroke="black" points="315,-856 531,-856 "/>
<text text-anchor="middle" x="353" y="-837.6" font-family="Times Roman,serif" font-size="16.00"> </text>
<polyline fill="none" stroke="black" points="391,-828 391,-856 "/>
<text text-anchor="middle" x="461" y="-837.6" font-family="Times Roman,serif" font-size="16.00">output [R]</text>
</g>
<!-- trainAppearanceModelCV__scalespacefilter -->
<g id="node13" class="node"><title>trainAppearanceModelCV__scalespacefilter</title>
<polygon fill="#e5e5e5" stroke="black" points="612.5,-716 612.5,-912 895.5,-912 895.5,-716 612.5,-716"/>
<text text-anchor="middle" x="754" y="-893.6" font-family="Times Roman,serif" font-size="16.00">scalespacefilter</text>
<polyline fill="none" stroke="black" points="612.5,-884 895.5,-884 "/>
<text text-anchor="middle" x="690" y="-865.6" font-family="Times Roman,serif" font-size="16.00">[O] image</text>
<polyline fill="none" stroke="black" points="612.5,-856 767.5,-856 "/>
<text text-anchor="middle" x="690" y="-837.6" font-family="Times Roman,serif" font-size="16.00">[R] scales</text>
<polyline fill="none" stroke="black" points="612.5,-828 767.5,-828 "/>
<text text-anchor="middle" x="690" y="-809.6" font-family="Times Roman,serif" font-size="16.00">[] locations</text>
<polyline fill="none" stroke="black" points="612.5,-800 767.5,-800 "/>
<text text-anchor="middle" x="690" y="-781.6" font-family="Times Roman,serif" font-size="16.00">[] interpolation_order</text>
<polyline fill="none" stroke="black" points="612.5,-772 767.5,-772 "/>
<text text-anchor="middle" x="690" y="-753.6" font-family="Times Roman,serif" font-size="16.00">[] features_enum</text>
<polyline fill="none" stroke="black" points="612.5,-744 767.5,-744 "/>
<text text-anchor="middle" x="690" y="-725.6" font-family="Times Roman,serif" font-size="16.00">[] datatype</text>
<polyline fill="none" stroke="black" points="767.5,-716 767.5,-884 "/>
<text text-anchor="middle" x="831.5" y="-837.6" font-family="Times Roman,serif" font-size="16.00">image [O]</text>
<polyline fill="none" stroke="black" points="767.5,-800 895.5,-800 "/>
<text text-anchor="middle" x="831.5" y="-753.6" font-family="Times Roman,serif" font-size="16.00">numpy_array [O]</text>
</g>
<!-- trainAppearanceModelCV__const_scalespacefilter_scales_0&#45;&gt;trainAppearanceModelCV__scalespacefilter -->
<g id="edge22" class="edge"><title>trainAppearanceModelCV__const_scalespacefilter_scales_0:o_output&#45;&gt;trainAppearanceModelCV__scalespacefilter:i_scales</title>
<path fill="none" stroke="black" d="M531,-842C563.344,-842 573.893,-842 601.81,-842"/>
<polygon fill="black" stroke="black" points="602,-845.5 612,-842 602,-838.5 602,-845.5"/>
</g>
<!-- trainAppearanceModelCV__classifier -->
<g id="node6" class="node"><title>trainAppearanceModelCV__classifier</title>
<polygon fill="#e5e5e5" stroke="black" points="1246.5,-476 1246.5,-616 1497.5,-616 1497.5,-476 1246.5,-476"/>
<text text-anchor="middle" x="1372" y="-597.6" font-family="Times Roman,serif" font-size="16.00">classifier</text>
<polyline fill="none" stroke="black" points="1246.5,-588 1497.5,-588 "/>
<text text-anchor="middle" x="1323" y="-569.6" font-family="Times Roman,serif" font-size="16.00">[S] samples</text>
<polyline fill="none" stroke="black" points="1246.5,-560 1399.5,-560 "/>
<text text-anchor="middle" x="1323" y="-541.6" font-family="Times Roman,serif" font-size="16.00">[N] parameters</text>
<polyline fill="none" stroke="black" points="1246.5,-532 1399.5,-532 "/>
<text text-anchor="middle" x="1323" y="-513.6" font-family="Times Roman,serif" font-size="16.00">[] number_of_folds</text>
<polyline fill="none" stroke="black" points="1246.5,-504 1399.5,-504 "/>
<text text-anchor="middle" x="1323" y="-485.6" font-family="Times Roman,serif" font-size="16.00">[T] number_of_cores</text>
<polyline fill="none" stroke="black" points="1399.5,-476 1399.5,-588 "/>
<text text-anchor="middle" x="1448.5" y="-527.6" font-family="Times Roman,serif" font-size="16.00">classifier [N]</text>
</g>
<!-- trainAppearanceModelCV__classifier&#45;&gt;trainAppearanceModelCV__out_classifier -->
<g id="edge10" class="edge"><title>trainAppearanceModelCV__classifier:o_classifier&#45;&gt;trainAppearanceModelCV__out_classifier:i_input</title>
<path fill="none" stroke="black" d="M1498,-532C1510,-532 1515.25,-532 1523.88,-532"/>
<polygon fill="black" stroke="black" points="1524,-535.5 1534,-532 1524,-528.5 1524,-535.5"/>
</g>
<!-- trainAppearanceModelCV__const_threshold_upper_threshold_0 -->
<g id="node7" class="node"><title>trainAppearanceModelCV__const_threshold_upper_threshold_0</title>
<polygon fill="#ffbbff" stroke="black" points="0,-642 0,-698 248,-698 248,-642 0,-642"/>
<text text-anchor="middle" x="124" y="-679.6" font-family="Times Roman,serif" font-size="16.00">const_threshold_upper_threshold_0</text>
<polyline fill="none" stroke="black" points="0,-670 248,-670 "/>
<text text-anchor="middle" x="46" y="-651.6" font-family="Times Roman,serif" font-size="16.00"> </text>
<polyline fill="none" stroke="black" points="92,-642 92,-670 "/>
<text text-anchor="middle" x="170" y="-651.6" font-family="Times Roman,serif" font-size="16.00">output [U]</text>
</g>
<!-- trainAppearanceModelCV__const_threshold_upper_threshold_0&#45;&gt;trainAppearanceModelCV__threshold -->
<g id="edge18" class="edge"><title>trainAppearanceModelCV__const_threshold_upper_threshold_0:o_output&#45;&gt;trainAppearanceModelCV__threshold:i_upper_threshold</title>
<path fill="none" stroke="black" d="M248,-656C260,-656 265.25,-656 273.875,-656"/>
<polygon fill="black" stroke="black" points="274,-659.5 284,-656 274,-652.5 274,-659.5"/>
</g>
<!-- trainAppearanceModelCV__threshold&#45;&gt;trainAppearanceModelCV__morph -->
<g id="edge32" class="edge"><title>trainAppearanceModelCV__threshold:o_image&#45;&gt;trainAppearanceModelCV__morph:i_image</title>
<path fill="none" stroke="black" d="M521,-221C521,-211.997 554.358,-216.519 561.5,-222 603.869,-254.518 549.352,-333.748 587.638,-344.729"/>
<polygon fill="black" stroke="black" points="587.648,-348.257 598,-346 588.5,-341.309 587.648,-348.257"/>
</g>
<!-- trainAppearanceModelCV__const_morph_operation_type_0 -->
<g id="node9" class="node"><title>trainAppearanceModelCV__const_morph_operation_type_0</title>
<polygon fill="#ffbbff" stroke="black" points="311.5,-74 311.5,-130 534.5,-130 534.5,-74 311.5,-74"/>
<text text-anchor="middle" x="423" y="-111.6" font-family="Times Roman,serif" font-size="16.00">const_morph_operation_type_0</text>
<polyline fill="none" stroke="black" points="311.5,-102 534.5,-102 "/>
<text text-anchor="middle" x="351.5" y="-83.6" font-family="Times Roman,serif" font-size="16.00"> </text>
<polyline fill="none" stroke="black" points="391.5,-74 391.5,-102 "/>
<text text-anchor="middle" x="463" y="-83.6" font-family="Times Roman,serif" font-size="16.00">output [P]</text>
</g>
<!-- trainAppearanceModelCV__const_morph_operation_type_0&#45;&gt;trainAppearanceModelCV__morph -->
<g id="edge28" class="edge"><title>trainAppearanceModelCV__const_morph_operation_type_0:o_output&#45;&gt;trainAppearanceModelCV__morph:i_operation_type</title>
<path fill="none" stroke="black" d="M535,-88C560.647,-88 552.954,-115.001 562,-139 585.004,-200.027 535.034,-280.611 587.78,-289.242"/>
<polygon fill="black" stroke="black" points="587.769,-292.751 598,-290 588.286,-285.77 587.769,-292.751"/>
</g>
<!-- trainAppearanceModelCV__sampler&#45;&gt;trainAppearanceModelCV__classifier -->
<g id="edge4" class="edge"><title>trainAppearanceModelCV__sampler:o_sample_file&#45;&gt;trainAppearanceModelCV__classifier:i_samples</title>
<path fill="none" stroke="blue" stroke-width="3" d="M1210,-574C1222,-574 1227.25,-574 1235.88,-574"/>
<polygon fill="blue" stroke="blue" points="1236,-577.5 1246,-574 1236,-570.5 1236,-577.5"/>
</g>
<!-- trainAppearanceModelCV__images -->
<g id="node11" class="node"><title>trainAppearanceModelCV__images</title>
<polygon fill="#caff70" stroke="black" points="371,-902 371,-958 475,-958 475,-902 371,-902"/>
<text text-anchor="middle" x="423" y="-939.6" font-family="Times Roman,serif" font-size="16.00">images</text>
<polyline fill="none" stroke="black" points="371,-930 475,-930 "/>
<text text-anchor="middle" x="381" y="-911.6" font-family="Times Roman,serif" font-size="16.00"> </text>
<polyline fill="none" stroke="black" points="391,-902 391,-930 "/>
<text text-anchor="middle" x="433" y="-911.6" font-family="Times Roman,serif" font-size="16.00">output [O]</text>
</g>
<!-- trainAppearanceModelCV__images&#45;&gt;trainAppearanceModelCV__scalespacefilter -->
<g id="edge24" class="edge"><title>trainAppearanceModelCV__images:o_output&#45;&gt;trainAppearanceModelCV__scalespacefilter:i_image</title>
<path fill="none" stroke="black" d="M475,-916C514.995,-916 524.359,-906.519 562,-893 581.424,-886.024 586.252,-874.446 601.979,-870.998"/>
<polygon fill="black" stroke="black" points="602.396,-874.474 612,-870 601.702,-867.509 602.396,-874.474"/>
</g>
<!-- trainAppearanceModelCV__const_sampler_nsamples_0 -->
<g id="node12" class="node"><title>trainAppearanceModelCV__const_sampler_nsamples_0</title>
<polygon fill="#ffbbff" stroke="black" points="657.5,-34 657.5,-90 850.5,-90 850.5,-34 657.5,-34"/>
<text text-anchor="middle" x="754" y="-71.6" font-family="Times Roman,serif" font-size="16.00">const_sampler_nsamples_0</text>
<polyline fill="none" stroke="black" points="657.5,-62 850.5,-62 "/>
<text text-anchor="middle" x="689.5" y="-43.6" font-family="Times Roman,serif" font-size="16.00"> </text>
<polyline fill="none" stroke="black" points="721.5,-34 721.5,-62 "/>
<text text-anchor="middle" x="786" y="-43.6" font-family="Times Roman,serif" font-size="16.00">output [V]</text>
</g>
<!-- trainAppearanceModelCV__const_sampler_nsamples_0&#45;&gt;trainAppearanceModelCV__sampler -->
<g id="edge6" class="edge"><title>trainAppearanceModelCV__const_sampler_nsamples_0:o_output&#45;&gt;trainAppearanceModelCV__sampler:i_nsamples</title>
<path fill="none" stroke="black" d="M851,-48C885.661,-48 894.365,-68.0655 910,-99 931.681,-141.899 899.335,-508.019 937.146,-555.036"/>
<polygon fill="black" stroke="black" points="935.566,-558.163 946,-560 938.989,-552.057 935.566,-558.163"/>
</g>
<!-- trainAppearanceModelCV__scalespacefilter&#45;&gt;trainAppearanceModelCV__sampler -->
<g id="edge16" class="edge"><title>trainAppearanceModelCV__scalespacefilter:o_image&#45;&gt;trainAppearanceModelCV__sampler:i_image</title>
<path fill="none" stroke="black" d="M896,-842C983.04,-842 865.653,-659.909 935.923,-644.972"/>
<polygon fill="black" stroke="black" points="936.382,-648.444 946,-644 935.71,-641.476 936.382,-648.444"/>
</g>
<!-- trainAppearanceModelCV__const_morph_radius_0 -->
<g id="node14" class="node"><title>trainAppearanceModelCV__const_morph_radius_0</title>
<polygon fill="#ffbbff" stroke="black" points="340.5,-0 340.5,-56 505.5,-56 505.5,-0 340.5,-0"/>
<text text-anchor="middle" x="423" y="-37.6" font-family="Times Roman,serif" font-size="16.00">const_morph_radius_0</text>
<polyline fill="none" stroke="black" points="340.5,-28 505.5,-28 "/>
<text text-anchor="middle" x="365.5" y="-9.6" font-family="Times Roman,serif" font-size="16.00"> </text>
<polyline fill="none" stroke="black" points="390.5,-0 390.5,-28 "/>
<text text-anchor="middle" x="448" y="-9.6" font-family="Times Roman,serif" font-size="16.00">output [Q]</text>
</g>
<!-- trainAppearanceModelCV__const_morph_radius_0&#45;&gt;trainAppearanceModelCV__morph -->
<g id="edge26" class="edge"><title>trainAppearanceModelCV__const_morph_radius_0:o_output&#45;&gt;trainAppearanceModelCV__morph:i_radius</title>
<path fill="none" stroke="black" d="M506,-14C539.664,-14 545.244,-35.8026 562,-65 598.358,-128.355 528.641,-224.086 587.833,-233.284"/>
<polygon fill="black" stroke="black" points="587.779,-236.788 598,-234 588.271,-229.806 587.779,-236.788"/>
</g>
<!-- trainAppearanceModelCV__param_file -->
<g id="node15" class="node"><title>trainAppearanceModelCV__param_file</title>
<polygon fill="#caff70" stroke="black" points="1026,-416 1026,-472 1130,-472 1130,-416 1026,-416"/>
<text text-anchor="middle" x="1078" y="-453.6" font-family="Times Roman,serif" font-size="16.00">param_file</text>
<polyline fill="none" stroke="black" points="1026,-444 1130,-444 "/>
<text text-anchor="middle" x="1036" y="-425.6" font-family="Times Roman,serif" font-size="16.00"> </text>
<polyline fill="none" stroke="black" points="1046,-416 1046,-444 "/>
<text text-anchor="middle" x="1088" y="-425.6" font-family="Times Roman,serif" font-size="16.00">output [N]</text>
</g>
<!-- trainAppearanceModelCV__param_file&#45;&gt;trainAppearanceModelCV__classifier -->
<g id="edge2" class="edge"><title>trainAppearanceModelCV__param_file:o_output&#45;&gt;trainAppearanceModelCV__classifier:i_parameters</title>
<path fill="none" stroke="black" d="M1130,-430C1172.17,-430 1181.12,-450.278 1210,-481 1229.79,-502.053 1217.23,-536.029 1235.9,-544.194"/>
<polygon fill="black" stroke="black" points="1235.54,-547.685 1246,-546 1236.77,-540.794 1235.54,-547.685"/>
</g>
<!-- trainAppearanceModelCV__const_classifier_number_of_cores_0 -->
<g id="node16" class="node"><title>trainAppearanceModelCV__const_classifier_number_of_cores_0</title>
<polygon fill="#ffbbff" stroke="black" points="952,-342 952,-398 1204,-398 1204,-342 952,-342"/>
<text text-anchor="middle" x="1078" y="-379.6" font-family="Times Roman,serif" font-size="16.00">const_classifier_number_of_cores_0</text>
<polyline fill="none" stroke="black" points="952,-370 1204,-370 "/>
<text text-anchor="middle" x="999" y="-351.6" font-family="Times Roman,serif" font-size="16.00"> </text>
<polyline fill="none" stroke="black" points="1046,-342 1046,-370 "/>
<text text-anchor="middle" x="1125" y="-351.6" font-family="Times Roman,serif" font-size="16.00">output [T]</text>
</g>
<!-- trainAppearanceModelCV__const_classifier_number_of_cores_0&#45;&gt;trainAppearanceModelCV__classifier -->
<g id="edge12" class="edge"><title>trainAppearanceModelCV__const_classifier_number_of_cores_0:o_output&#45;&gt;trainAppearanceModelCV__classifier:i_number_of_cores</title>
<path fill="none" stroke="black" d="M1204,-356C1262.51,-356 1193.37,-473.773 1235.93,-488.495"/>
<polygon fill="black" stroke="black" points="1235.59,-491.984 1246,-490 1236.63,-485.061 1235.59,-491.984"/>
</g>
</g>
</svg>
